<?xml version="1.0" encoding="UTF-8" standalone="no"?>
<!-- Created with Inkscape (http://www.inkscape.org/) -->

<svg
   xmlns:dc="http://purl.org/dc/elements/1.1/"
   xmlns:cc="http://creativecommons.org/ns#"
   xmlns:rdf="http://www.w3.org/1999/02/22-rdf-syntax-ns#"
   xmlns:svg="http://www.w3.org/2000/svg"
   xmlns="http://www.w3.org/2000/svg"
   xmlns:sodipodi="http://sodipodi.sourceforge.net/DTD/sodipodi-0.dtd"
   xmlns:inkscape="http://www.inkscape.org/namespaces/inkscape"
   width="512"
   height="512"
   viewBox="0 0 135.46666 135.46667"
   version="1.1"
   id="svg8"
   inkscape:version="0.92.4 5da689c313, 2019-01-14"
   sodipodi:docname="r4.svg">
  <defs
     id="defs2" />
  <sodipodi:namedview
     id="base"
     pagecolor="#ffffff"
     bordercolor="#666666"
     borderopacity="1.0"
     inkscape:pageopacity="0.0"
     inkscape:pageshadow="2"
     inkscape:zoom="0.7"
     inkscape:cx="64.081417"
     inkscape:cy="119.09081"
     inkscape:document-units="px"
     inkscape:current-layer="layer2"
     showgrid="false"
     units="px"
     inkscape:showpageshadow="false"
     inkscape:window-width="1680"
     inkscape:window-height="997"
     inkscape:window-x="2736"
     inkscape:window-y="371"
     inkscape:window-maximized="1" />
  <metadata
     id="metadata5">
    <rdf:RDF>
      <cc:Work
         rdf:about="">
        <dc:format>image/svg+xml</dc:format>
        <dc:type
           rdf:resource="http://purl.org/dc/dcmitype/StillImage" />
        <dc:title></dc:title>
      </cc:Work>
    </rdf:RDF>
  </metadata>
  <g
     inkscape:groupmode="layer"
     id="layer2"
     inkscape:label="Layer 2">
    <path
       style="fill:#301934;fill-opacity:1;stroke:none;stroke-width:0.99999994"
       d="M 373.85742 40.470703 L 40.470703 138.14258 L 138.14258 471.5293 L 471.5293 373.85742 L 373.85742 40.470703 z M 323.88867 179.17383 L 342.49609 179.17383 L 342.49609 266.36133 C 348.59214 266.36133 351.28697 266.32674 350.57812 266.25586 C 354.19322 266.68116 356 268.20542 356 270.82812 C 356 273.45085 354.15669 274.97313 350.4707 275.39844 C 351.10866 275.32756 348.45037 275.29297 342.49609 275.29297 L 342.49609 303.68164 L 350.04492 303.68164 C 354.01444 303.68164 356 305.20588 356 308.25391 C 356 311.23105 354.01444 312.7207 350.04492 312.7207 L 326.01562 312.7207 C 322.04612 312.7207 320.0625 311.23105 320.0625 308.25391 C 320.0625 305.20588 322.04612 303.68164 326.01562 303.68164 L 333.56445 303.68164 L 333.45898 275.29297 L 274.23438 275.29297 L 274.23438 264.97852 L 323.88867 179.17383 z M 328.78125 188.21094 L 283.5918 266.36133 L 333.45898 266.36133 L 333.45898 188.21094 L 328.78125 188.21094 z M 220.54102 229.4668 C 224.15611 229.4668 228.55006 230.88338 233.72461 233.71875 C 239.39535 236.83766 242.23047 239.92268 242.23047 242.9707 C 242.23047 246.08961 240.67164 247.64844 237.55273 247.64844 C 236.48947 247.64844 234.25596 246.1242 230.85352 243.07617 C 227.45107 239.95726 224.19117 238.39844 221.07227 238.39844 C 215.33064 238.39844 207.67485 241.9774 198.10547 249.13672 C 194.49037 251.83032 187.93404 257.42943 178.43555 265.93555 L 178.43555 303.89453 C 184.38983 303.89453 187.0827 303.85994 186.51562 303.78906 C 190.13072 304.21437 191.9375 305.73861 191.9375 308.36133 C 191.9375 311.33847 189.95389 312.82617 185.98438 312.82617 L 162.06055 312.82617 C 158.02014 312.82617 156 311.33847 156 308.36133 C 156 305.73861 157.80678 304.21437 161.42188 303.78906 C 160.8548 303.85994 163.54963 303.89453 169.50391 303.89453 L 169.50391 240.73633 C 163.62051 240.73633 160.8911 240.77287 161.31641 240.84375 C 157.77219 240.41844 156 238.85767 156 236.16406 C 156 233.18692 157.98556 231.69922 161.95508 231.69922 L 178.43555 231.69922 L 178.43555 254.24023 C 187.01255 246.51385 193.42663 241.19727 197.67969 238.29102 C 206.1858 232.40762 213.80701 229.4668 220.54102 229.4668 z "
       transform="scale(0.26458333)"
       id="rect871" />
    <g
       aria-label="r4"
       style="font-style:normal;font-weight:normal;font-size:57.61474609px;line-height:1.25;font-family:sans-serif;letter-spacing:0px;word-spacing:0px;fill:#ffe3ff;fill-opacity:1;stroke:none;stroke-width:1.44036865"
       id="text879" />
  </g>
  <g
     inkscape:label="Layer 1"
     inkscape:groupmode="layer"
     id="layer1"
     transform="translate(0,-161.53331)" />
</svg>
