<?xml version="1.0" encoding="UTF-8" standalone="no"?>
<!-- Created with Inkscape (http://www.inkscape.org/) -->

<svg
   xmlns:dc="http://purl.org/dc/elements/1.1/"
   xmlns:cc="http://creativecommons.org/ns#"
   xmlns:rdf="http://www.w3.org/1999/02/22-rdf-syntax-ns#"
   xmlns:svg="http://www.w3.org/2000/svg"
   xmlns="http://www.w3.org/2000/svg"
   xmlns:sodipodi="http://sodipodi.sourceforge.net/DTD/sodipodi-0.dtd"
   xmlns:inkscape="http://www.inkscape.org/namespaces/inkscape"
   width="512"
   height="512"
   viewBox="0 0 135.46666 135.46667"
   version="1.1"
   id="svg8"
   inkscape:version="0.92.4 5da689c313, 2019-01-14"
   sodipodi:docname="r4.svg">
  <defs
     id="defs2" />
  <sodipodi:namedview
     id="base"
     pagecolor="#ffffff"
     bordercolor="#666666"
     borderopacity="1.0"
     inkscape:pageopacity="0.0"
     inkscape:pageshadow="2"
     inkscape:zoom="0.98994949"
     inkscape:cx="174.71691"
     inkscape:cy="174.94183"
     inkscape:document-units="px"
     inkscape:current-layer="layer2"
     showgrid="false"
     units="px"
     inkscape:showpageshadow="false"
     inkscape:window-width="1680"
     inkscape:window-height="997"
     inkscape:window-x="0"
     inkscape:window-y="0"
     inkscape:window-maximized="1" />
  <metadata
     id="metadata5">
    <rdf:RDF>
      <cc:Work
         rdf:about="">
        <dc:format>image/svg+xml</dc:format>
        <dc:type
           rdf:resource="http://purl.org/dc/dcmitype/StillImage" />
        <dc:title />
      </cc:Work>
    </rdf:RDF>
  </metadata>
  <g
     inkscape:groupmode="layer"
     id="layer2"
     inkscape:label="Layer 2">
    <g
       aria-label="r4"
       style="font-style:normal;font-weight:normal;font-size:57.61474609px;line-height:1.25;font-family:sans-serif;letter-spacing:0px;word-spacing:0px;fill:#ffe3ff;fill-opacity:1;stroke:none;stroke-width:1.44036865"
       id="text879" />
    <g
       aria-label="r4"
       style="font-style:normal;font-variant:normal;font-weight:normal;font-stretch:normal;font-size:31.76523209px;line-height:1.25;font-family:'Nimbus Mono PS';-inkscape-font-specification:'Nimbus Mono PS';letter-spacing:0px;word-spacing:0px;fill:#000000;fill-opacity:1;stroke:none;stroke-width:0.7941308"
       id="text871" />
    <path
       style="fill:#ffffff;fill-opacity:1;stroke:none;stroke-width:0.30689949"
       d="M 103.90381,1.5875 1.5875,31.562861 31.562851,133.87916 133.87916,103.90381 Z"
       id="rect871-3"
       inkscape:connector-curvature="0"
       sodipodi:nodetypes="ccccc" />
  </g>
  <g
     inkscape:label="Layer 1"
     inkscape:groupmode="layer"
     id="layer1"
     transform="translate(0,-161.53331)">
    <path
       style="fill:#301934;fill-opacity:1;stroke:none;stroke-width:1.18777347"
       d="M 395.98828,0 0,116.01172 116.01172,512 512,395.98828 Z m -44.03906,163.41406 h 39.47656 v 105.45899 c 6.33902,0.28814 8.35497,0.86492 11.23633,2.59375 4.03396,2.88138 6.33984,7.49135 6.33984,12.10156 0,9.22042 -6.3388,14.69427 -17.57617,14.98242 v 8.35742 c 6.33902,0.28814 8.35497,0.86389 11.23633,2.88086 4.03396,2.59325 6.33984,7.20229 6.33984,11.8125 0,9.7967 -6.91648,14.98438 -20.45898,14.98438 h -38.0332 c -13.25436,0 -20.16993,-5.18768 -20.16993,-14.98438 0,-4.89835 2.88198,-9.79635 7.49219,-12.67773 2.88138,-1.44069 5.47428,-2.01563 12.67774,-2.01563 h 9.79687 v -8.35742 h -78.375 v -24.20312 z m 8.35742,43.79688 -39.76367,61.66211 h 39.76367 z m -143.49414,3.45898 c 10.37297,0 19.88309,3.4567 29.10352,10.66016 6.05089,4.89835 8.35546,8.64359 8.35546,13.83008 0,8.356 -7.20454,15.27148 -15.56054,15.27148 -4.32208,0 -7.49136,-1.44067 -12.10156,-5.47461 -4.03394,-3.45766 -6.62726,-4.60937 -10.37305,-4.60937 -8.64414,0 -20.17006,6.9142 -46.39063,27.66015 v 38.90039 h 38.90039 c 8.06787,0 10.94767,0.57576 14.11719,2.88086 4.03394,2.88139 6.33984,7.20229 6.33984,11.8125 0,10.08484 -6.91453,14.98438 -20.45703,14.98438 h -85.57812 c -13.25435,0 -20.16992,-5.18768 -20.16992,-14.98438 0,-4.89835 2.88197,-10.08449 7.49218,-12.67773 2.88138,-1.72881 5.24727,-2.97067 12.67774,-2.01563 h 15.56055 v -63.10351 h -8.9336 c -13.25436,0 -20.16992,-5.18573 -20.16992,-14.98242 0,-5.18649 2.88198,-10.0845 7.49219,-12.67774 2.01697,-1.44069 7.49769,-2.56531 12.67773,-2.30664 h 40.05078 v 16.71289 c 22.47478,-15.55946 32.55989,-19.88086 46.9668,-19.88086 z"
       id="rect871"
       inkscape:connector-curvature="0"
       sodipodi:nodetypes="cccccccccscccsssscscccccccccscsscsccscsssscsccsscsccs"
       transform="matrix(0.26458333,0,0,0.26458333,0,161.53331)" />
  </g>
</svg>
