<?xml version="1.0" encoding="UTF-8" standalone="no"?>
<!-- Created with Inkscape (http://www.inkscape.org/) -->

<svg
   xmlns:dc="http://purl.org/dc/elements/1.1/"
   xmlns:cc="http://creativecommons.org/ns#"
   xmlns:rdf="http://www.w3.org/1999/02/22-rdf-syntax-ns#"
   xmlns:svg="http://www.w3.org/2000/svg"
   xmlns="http://www.w3.org/2000/svg"
   xmlns:sodipodi="http://sodipodi.sourceforge.net/DTD/sodipodi-0.dtd"
   xmlns:inkscape="http://www.inkscape.org/namespaces/inkscape"
   width="512"
   height="512"
   viewBox="0 0 135.46666 135.46667"
   version="1.1"
   id="svg8"
   inkscape:version="0.92.4 (5da689c313, 2019-01-14)"
   sodipodi:docname="r4.svg"
   inkscape:export-filename="C:\Users\r4nd0wn\r4\r4.png"
   inkscape:export-xdpi="96"
   inkscape:export-ydpi="96">
  <defs
     id="defs2" />
  <sodipodi:namedview
     id="base"
     pagecolor="#ffffff"
     bordercolor="#666666"
     borderopacity="1.0"
     inkscape:pageopacity="0.0"
     inkscape:pageshadow="2"
     inkscape:zoom="0.98994949"
     inkscape:cx="293.71674"
     inkscape:cy="129.01273"
     inkscape:document-units="px"
     inkscape:current-layer="layer1"
     showgrid="false"
     units="px"
     inkscape:showpageshadow="false"
     inkscape:window-width="1920"
     inkscape:window-height="1027"
     inkscape:window-x="1912"
     inkscape:window-y="-8"
     inkscape:window-maximized="1" />
  <metadata
     id="metadata5">
    <rdf:RDF>
      <cc:Work
         rdf:about="">
        <dc:format>image/svg+xml</dc:format>
        <dc:type
           rdf:resource="http://purl.org/dc/dcmitype/StillImage" />
        <dc:title />
      </cc:Work>
    </rdf:RDF>
  </metadata>
  <g
     inkscape:groupmode="layer"
     id="layer2"
     inkscape:label="Layer 2">
    <g
       aria-label="r4"
       style="font-style:normal;font-weight:normal;font-size:57.61474609px;line-height:1.25;font-family:sans-serif;letter-spacing:0px;word-spacing:0px;fill:#ffe3ff;fill-opacity:1;stroke:none;stroke-width:1.44036865"
       id="text879" />
    <path
       style="fill:#ffffff;fill-opacity:1;stroke:none;stroke-width:0.31426507"
       d="M 104.77181,7.9999999e-6 2.4999999e-6,30.694868 30.694862,135.46666 135.46666,104.77182 Z"
       id="rect871-3"
       inkscape:connector-curvature="0"
       sodipodi:nodetypes="ccccc" />
  </g>
  <g
     inkscape:label="Layer 1"
     inkscape:groupmode="layer"
     id="layer1"
     transform="translate(0,-161.53331)">
    <path
       transform="translate(0,161.53331)"
       style="fill:#301934;fill-opacity:1;stroke:none;stroke-width:0.31426507"
       d="M 104.77181,5.2399998e-6 0,30.694865 30.694859,135.46666 135.46666,104.77181 Z M 89.068365,43.589554 h 5.84766 V 70.98954 c 1.91578,0 2.762669,-0.01087 2.539898,-0.03315 1.136097,0.133657 1.703905,0.612679 1.703905,1.436901 0,0.824232 -0.579287,1.302632 -1.737656,1.436292 0.200478,-0.02227 -0.634921,-0.03315 -2.506147,-0.03315 v 8.921568 h 2.37233 c 1.247488,0 1.871473,0.479015 1.871473,1.436905 0,0.935611 -0.623985,1.403756 -1.871473,1.403756 h -7.551564 c -1.247476,0 -1.870858,-0.468145 -1.870858,-1.403756 0,-0.95789 0.623382,-1.436905 1.870858,-1.436905 h 2.372337 l -0.03318,-8.921568 H 73.463755 v -3.24147 z M 90.605931,46.429601 76.404466,70.98954 H 92.075981 V 46.429601 Z M 56.589809,59.394878 c 1.136097,0 2.516962,0.445181 4.143142,1.336239 1.782116,0.980165 2.673095,1.949679 2.673095,2.907565 0,0.980165 -0.489886,1.470051 -1.47005,1.470051 -0.334146,0 -1.03606,-0.479016 -2.105329,-1.436905 -1.069271,-0.980164 -2.093743,-1.470047 -3.073904,-1.470047 -1.804395,0 -4.210342,1.124742 -7.217664,3.374666 -1.136099,0.846505 -3.196525,2.606109 -6.181568,5.279286 v 11.92918 c 1.871222,0 2.717497,-0.01087 2.539283,-0.03315 1.1361,0.133659 1.703908,0.612675 1.703908,1.436904 0,0.935611 -0.623379,1.403143 -1.870858,1.403143 h -7.518423 c -1.26976,0 -1.904619,-0.467532 -1.904619,-1.403143 0,-0.824229 0.567808,-1.303245 1.703907,-1.436904 -0.178213,0.02227 0.668678,0.03315 2.5399,0.03315 V 62.936498 c -1.848947,0 -2.706705,0.01148 -2.573045,0.03376 -1.113825,-0.133659 -1.670762,-0.624155 -1.670762,-1.470663 0,-0.935611 0.623992,-1.403143 1.871473,-1.403143 h 5.179236 v 7.083852 c 2.695451,-2.428131 4.711172,-4.098947 6.047761,-5.01228 2.673173,-1.848947 5.068253,-2.773144 7.184517,-2.773144 z"
       id="rect871"
       inkscape:connector-curvature="0" />
  </g>
</svg>
