<?xml version="1.0" encoding="UTF-8" standalone="no"?>
<!-- Created with Inkscape (http://www.inkscape.org/) -->

<svg
   xmlns:dc="http://purl.org/dc/elements/1.1/"
   xmlns:cc="http://creativecommons.org/ns#"
   xmlns:rdf="http://www.w3.org/1999/02/22-rdf-syntax-ns#"
   xmlns:svg="http://www.w3.org/2000/svg"
   xmlns="http://www.w3.org/2000/svg"
   xmlns:sodipodi="http://sodipodi.sourceforge.net/DTD/sodipodi-0.dtd"
   xmlns:inkscape="http://www.inkscape.org/namespaces/inkscape"
   width="128"
   height="128"
   viewBox="0 0 33.866665 33.866667"
   version="1.1"
   id="svg8"
   inkscape:version="0.92.4 (5da689c313, 2019-01-14)"
   sodipodi:docname="r4.svg"
   inkscape:export-filename="C:\Users\r4nd0wn\r4\r4.png"
   inkscape:export-xdpi="96"
   inkscape:export-ydpi="96">
  <defs
     id="defs2" />
  <sodipodi:namedview
     id="base"
     pagecolor="#ffffff"
     bordercolor="#666666"
     borderopacity="1.0"
     inkscape:pageopacity="0.0"
     inkscape:pageshadow="2"
     inkscape:zoom="0.98994949"
     inkscape:cx="129.56695"
     inkscape:cy="129.01273"
     inkscape:document-units="px"
     inkscape:current-layer="layer1"
     showgrid="false"
     units="px"
     inkscape:showpageshadow="false"
     inkscape:window-width="1920"
     inkscape:window-height="1027"
     inkscape:window-x="1912"
     inkscape:window-y="-8"
     inkscape:window-maximized="1" />
  <metadata
     id="metadata5">
    <rdf:RDF>
      <cc:Work
         rdf:about="">
        <dc:format>image/svg+xml</dc:format>
        <dc:type
           rdf:resource="http://purl.org/dc/dcmitype/StillImage" />
        <dc:title></dc:title>
      </cc:Work>
    </rdf:RDF>
  </metadata>
  <g
     inkscape:groupmode="layer"
     id="layer2"
     inkscape:label="Layer 2"
     transform="translate(0,-101.6)">
    <g
       aria-label="r4"
       style="font-style:normal;font-weight:normal;font-size:57.61474609px;line-height:1.25;font-family:sans-serif;letter-spacing:0px;word-spacing:0px;fill:#ffe3ff;fill-opacity:1;stroke:none;stroke-width:1.44036865"
       id="text879" />
    <path
       style="fill:#ffffff;fill-opacity:1;stroke:none;stroke-width:0.31426507"
       d="M 104.77181,7.9999999e-6 2.4999999e-6,30.694868 30.694862,135.46666 135.46666,104.77182 Z"
       id="rect871-3"
       inkscape:connector-curvature="0"
       sodipodi:nodetypes="ccccc" />
  </g>
  <g
     inkscape:label="Layer 1"
     inkscape:groupmode="layer"
     id="layer1"
     transform="translate(0,-263.13331)">
    <path
       style="fill:#301934;fill-opacity:1;stroke:none;stroke-width:0.07856627"
       d="M 26.192953,263.13331 0,270.80702 l 7.673715,26.19295 26.192951,-7.67371 z m -3.925861,10.89738 h 1.461915 v 6.85 c 0.478945,0 0.690667,-0.003 0.634975,-0.008 0.284024,0.0334 0.425976,0.15317 0.425976,0.35923 0,0.20606 -0.144822,0.32566 -0.434414,0.35907 0.05012,-0.006 -0.15873,-0.008 -0.626537,-0.008 v 2.23039 h 0.593083 c 0.311872,0 0.467868,0.11976 0.467868,0.35923 0,0.2339 -0.155996,0.35094 -0.467868,0.35094 h -1.887891 c -0.311869,0 -0.467715,-0.11704 -0.467715,-0.35094 0,-0.23947 0.155846,-0.35923 0.467715,-0.35923 h 0.593084 l -0.0083,-2.23039 h -4.653049 v -0.81036 z m 0.384392,0.71001 -3.550367,6.13999 h 3.917879 v -6.13999 z m -8.504031,3.24132 c 0.284024,0 0.62924,0.1113 1.035785,0.33406 0.445529,0.24504 0.668274,0.48742 0.668274,0.72689 0,0.24505 -0.122471,0.36752 -0.367512,0.36752 -0.08354,0 -0.259015,-0.11976 -0.526333,-0.35923 -0.267317,-0.24504 -0.523435,-0.36751 -0.768476,-0.36751 -0.451098,0 -1.052585,0.28119 -1.804416,0.84367 -0.284025,0.21162 -0.799131,0.65152 -1.545392,1.31982 v 2.98229 c 0.467806,0 0.679374,-0.003 0.634821,-0.008 0.284025,0.0334 0.425977,0.15316 0.425977,0.35922 0,0.2339 -0.155845,0.35079 -0.467715,0.35079 H 9.5528606 c -0.31744,0 -0.4761548,-0.11689 -0.4761548,-0.35079 0,-0.20606 0.141952,-0.32581 0.4259768,-0.35922 -0.044553,0.006 0.1671695,0.008 0.6349754,0.008 v -4.9621 c -0.4622371,0 -0.6766767,0.003 -0.6432616,0.008 -0.2784563,-0.0334 -0.4176906,-0.15604 -0.4176906,-0.36767 0,-0.2339 0.155998,-0.35078 0.4678683,-0.35078 h 1.2948089 v 1.77096 c 0.673863,-0.60703 1.177793,-1.02474 1.51194,-1.25307 0.668294,-0.46224 1.267064,-0.69329 1.79613,-0.69329 z"
       id="rect871"
       inkscape:connector-curvature="0" />
  </g>
</svg>
